<?xml version="1.0" encoding="UTF-8"?>
<svg width="360.53" height="199.49" version="1.1" viewBox="0 0 360.53 199.49" xmlns="http://www.w3.org/2000/svg" xmlns:xlink="http://www.w3.org/1999/xlink">
 <path d="m340.49 2.004c-6.7048 0.08328-12.995 3.3964-17.804 7.9081-7.2499 6.6952-12.127 15.517-15.805 24.574-1.6474 4.1072-3.017 8.3228-4.1628 12.596-2.2938-0.11174-4.7717-0.4545-7.123-0.11133-2.6773 0.4834-5.1487 2.2118-6.3535 4.6738-2.1545-3.2856-6.214-4.7114-9.998-4.8164-5.6339-0.17689-11.135 2.0128-15.66 5.261-2.2186 1.6011-4.2039 3.5062-6.0449 5.5242 0.45579-2.3388 1.0332-4.8877-0.0762-7.1406-0.80102-1.8821-2.6339-3.1456-4.6226-3.4749-2.7125-0.55764-5.526-0.25386-8.227 0.221-3.7465 0.76733-7.3653 2.9447-9.1438 6.4273-1.5154 2.8664-2.013 6.1182-2.7468 9.2406-1.396 6.926-1.8839 14.02-1.6484 21.076-3.7061 3.9093-7.9896 7.3949-12.941 9.5898-1.2662 0.49724-2.6116 0.84027-3.9785 0.8457 5.1554-3.3756 10.204-7.3126 13.321-12.741 2.7788-4.7016 3.9615-10.337 3.1597-15.751-0.60811-4.6994-2.8958-9.2944-6.7707-12.13-4.4452-3.4147-10.376-4.4179-15.825-3.4806-7.4246 1.1165-14.548 5.0638-18.857 11.301-3.6225 5.0831-5.2774 11.398-5.2062 17.599-0.46855 0.30239-1.0368 0.84335-0.95889-0.0594-0.73703-4.3165-2.2159-8.7162-5.2875-11.945-3.1647-3.1916-8.2189-4.3402-12.423-2.6991-5.1342 1.7683-9.1508 6.2029-10.666 11.387-2.0536 6.53-0.60875 13.963 3.5615 19.363 0.90027 1.2203 1.9279 2.3484 3.0731 3.3432-0.10856 2.1837-0.24563 4.3658-0.39649 6.5469-4.6642-6.9997-9.1766-14.102-13.449-21.348-1.6562-2.5818-4.6076-4.4149-7.7339-4.2395-3.5986 0.09583-6.7592 2.1745-9.4462 4.3922-2.4894 2.1353-4.3329 5.3572-3.9016 8.7251 0.34565 3.6245 2.745 6.5252 4.5312 9.5484 3.2714 5.2188 6.7493 10.306 10.327 15.318-0.72455 3.8196-1.2769 7.7118-2.6334 11.372-0.20036 0.32947-0.39425 1.188-0.78457 1.1239-2.841-2.594-4.1166-6.3388-5.6736-9.7477-3.0557-7.2205-5.3119-14.825-8.8698-21.801-1.2792-2.3428-3.728-4.1454-6.4695-4.1101-3.5395-0.08046-6.6757 1.9409-9.3666 4.0308-2.4477 1.9248-4.4463 4.6948-4.6322 7.8892-2.1724 1.4241-4.3776 2.7991-6.6309 4.0918-2.6914-9.5992-6.5762-19.027-12.691-26.977-3.5324-4.4385-8.4557-7.977-14.11-9.0114-5.7144-1.2082-11.778 0.37295-16.531 3.6654-6.6152 4.3453-11.763 11.311-12.938 19.242-1.0465 6.9207 0.73156 14.067 4.2722 20.043 4.211 7.368 10.327 13.913 18.147 17.449 4.8709 2.2627 10.286 3.2242 15.64 3.0632 1.1371 8.4734 1.6575 17.136 0.2832 25.613-0.59947 3.1808-1.541 6.587-4.0645 8.7961-1.3042 1.0731-3.1224 1.0856-4.6546 0.55358-3.7712-1.1247-6.8642-3.7134-9.7933-6.2374-6.4028-5.6864-11.868-12.331-17.044-19.127-6.7126-8.9733-12.49-18.608-17.749-28.493-1.5505-2.8942-3.9773-5.5875-7.2783-6.3844-3.3142-0.83476-6.8063 0.28935-9.5387 2.1992-2.9839 1.9875-5.7255 4.5744-7.2463 7.8692-1.166 2.6399-1.0578 5.6782-0.12207 8.3691 1.3383 4.2318 3.7509 8.0025 5.9353 11.831 5.1193 8.5732 11.036 16.653 17.488 24.27 7.0303 8.45 14.657 16.526 23.594 22.989 5.4919 3.8979 11.459 7.4527 18.127 8.8416 5.2998 1.147 11.029 0.52475 15.8-2.1228 6.4974-3.5207 11.268-9.6347 14.207-16.321 3.3013-7.4447 4.5831-15.592 5.2862-23.65 0.66907-8.4083 0.36476-16.88-0.68681-25.244 2.9177-1.4538 5.7414-3.092 8.4824-4.8555 2.5375 5.6686 5.387 11.256 9.1523 16.219 3.443 4.4354 7.9077 8.3724 13.373 10.015 4.4181 1.2458 9.236 0.33573 13.165-1.9404 4.3972-2.4024 7.7045-6.4437 9.8063-10.94 0.81355-1.6941 1.4935-3.4495 2.0818-5.2337 3.3618 1.9797 7.5787 2.6188 11.288 1.2659 4.9314-1.6729 8.8725-5.8274 10.462-10.767 1.538-4.6609 1.9677-9.5881 2.5261-14.438 0.29489-2.6708 0.54914-5.346 0.81132-8.0202 2.9993-0.72181 5.9201-1.7662 8.6992-3.1055 4.3733 6.9484 11.303 12.503 19.389 14.349 5.2625 1.0598 10.727-0.11768 15.607-2.1595 3.4914-1.5076 6.7177-3.572 9.7109-5.9062 1.6482 2.9605 4.6921 5.2821 8.1602 5.4141 3.6462 0.28923 7.6717-0.95256 9.8164-4.0742 2.3964-3.4492 2.9016-7.7323 3.9851-11.69 1.4678-5.767 3.6848-11.353 6.677-16.501-1.0333 4.9426-2.213 9.9223-2.2132 15 0.0584 4.7506 1.4321 9.7605 4.9671 13.118 3.3612 3.1746 8.1624 4.2325 12.667 4.1022 5.8314-0.0248 11.592-1.9259 16.396-5.2104 2.5558-1.6318 4.9706-3.4803 7.2476-5.4816 2.8 5.1982 7.429 9.4147 12.965 11.52 5.5276 2.1808 11.637 2.7804 17.512 2.0058 4.6011-0.66134 8.9552-2.5059 12.871-4.9719 4.0039-2.4531 7.79-5.3224 11.027-8.7317 2.5382-3.0749 3.4634-7.1892 3.414-11.103-0.14045-3.0179-1.8614-6.1996-4.8687-7.1632-3.0378-1.0536-6.4564 0.13108-8.6782 2.3298-2.7493 2.3005-5.504 4.6159-8.5312 6.5482-0.36602 0.23503-1.0489 0.65571-1.5492 0.93801-3.3052 1.8806-7.5979 2.0617-10.996 0.32175-2.1198-1.271-3.0752-3.7425-3.3857-6.0881-0.89615-5.437-0.32933-10.975 0.22507-16.417 0.011-0.69999 0.0658-1.3464 0.92262-1.0112 4.7208 0.39076 9.538 0.95491 14.315 1.2538 4.3888 0.18509 9.1083-0.2534 12.775-2.9016 3.2993-2.4708 4.863-6.9328 4.0386-10.939-0.44714-2.2033-2.1178-4.0494-4.2483-4.7528-2.3535-0.85492-4.9025-0.75803-7.351-1.1276-0.1473-0.18956 0.74521-0.74951 0.99331-1.082 5.7091-5.4835 10.198-12.387 12.175-20.101 1.4394-5.4315 1.9936-11.37-5e-3 -16.737-1.551-4.3484-4.9228-8.1938-9.3982-9.6199-2.0731-0.71203-4.2833-0.96312-6.4676-0.93162zm-4.2168 21.812c-0.51811 5.0841-3.0935 9.6847-6.0222 13.768-0.31868 0.43086-0.64882 0.85325-0.99146 1.2652 1.7954-5.3995 3.8877-10.777 7.0488-15.539-0.0117 0.16862-0.0234 0.33724-0.0352 0.50586zm-45.885 40.668c2.188 2.0953 5.3767 2.4784 8.2665 2.6516 0.60389 0.0567 0.029 1.1177 0.12397 1.6079-0.32921 3.4169-0.57207 6.8469-0.56239 10.281-1.798 1.4129-3.2541 3.1995-4.9775 4.6989-2.4429 2.2659-4.8314 4.6851-7.7588 6.3265-0.55361 0.37522-1.0324 0.40563-0.8198-0.38147 0.49649-5.0116 1.9986-9.8532 3.2577-14.711 0.90203-3.4696 1.7808-6.9628 2.4703-10.474zm-182.53 4.5273c-5.1534 0.19654-9.9138 2.9171-13.5 6.4933-3.302 3.4195-5.4681 8.2929-4.6832 13.097 0.87044 4.9571 4.9059 9.3411 9.8983 10.288 3.4971 0.66993 7.0565-0.43656 10.085-2.1592 4.0106-2.2015 7.6947-5.4489 9.4523-9.7616 1.4767-3.5774 1.3477-7.776-0.44355-11.218-1.6012-3.3701-4.7648-6.1357-8.549-6.6002-0.74613-0.12146-1.5048-0.15162-2.2598-0.13853zm101.46 1.1934c0.77005 0.44518 0.57426 1.5312 0.55312 2.2806-0.44116 2.7263-2.5297 4.7808-4.5027 6.5436-0.28111 0.09501-0.0793-0.92398-0.1575-1.2343 0.0138-2.2806 0.41795-4.7379 1.9051-6.5446 0.56597-0.60353 1.3576-1.051 2.202-1.0453zm-147.17 27.924c1.7403 0.32563 2.8001 1.9349 3.8723 3.1944 3.2716 4.342 5.2823 9.4647 6.9598 14.593-3.7231-1.3097-6.6424-4.1824-8.8506-7.3708-1.6635-2.3711-3.2376-5.0704-3.251-8.0491 0.02312-0.9166 0.32135-2.0152 1.2695-2.3672z" style="font-variant-ligatures:none"/>
 <image id="container" x="-45.051" y="-131.93" width="480" height="480" display="none" xlink:href=""/>
 <image id="icon_container" x="-20.767" y="-275.93" width="0" height="0" display="none" xlink:href=""/>
 <g id="title" transform="translate(-20.767 -275.93)" stroke-miterlimit="2" stroke-width="0" style="font-variant-ligatures:none">
  <path transform="matrix(1.67 0 0 1.67 -654.5 436.18)" d="m468.61-34.829c1.003-0.6814 1.8597-0.96748 2.5639-0.86199 0.74834 0.07623 1.3347 0.43526 1.7612 1.074 0.6931 1.038 0.95781 2.1881 0.80292 3.4491-0.11178 1.2323-0.86037 2.3444-2.2456 3.3508-3.3743 2.4262-6.5453 4.3135-9.5707 5.6508 0.082 0.56708 0.15783 1.1313 0.22751 1.6926 0.91231 7.3235 0.79119 14.166-0.35895 20.543-1.2276 6.8034-3.7602 11.724-7.7452 14.87-0.79698 0.62918-1.6213 1.1433-2.4743 1.5426v1e-6c-3.5305 1.653-7.5362 1.3104-12.104-0.98754-0.30484-0.15334-0.61071-0.3134-0.91761-0.48016-2.5721-1.3973-5.2331-3.2976-7.9506-5.6506-1.3274-1.1493-2.6889-2.4325-4.0529-3.8109v-9e-7c-0.59513-0.60144-1.2012-1.2337-1.8033-1.8789 0.0145 0.016177-0.95234-1.06-0.93781-1.0439v-2.2e-6c-1.7893-2.0543-1.8865-2.1387-2.0555-2.3302-0.20621-0.23368-0.49648-0.61471-3.0676-3.7183 0.36027 0.44883-1.5678-1.9515-1.2075-1.5027v-1.8e-6c-0.67914-0.88023-1.3262-1.7443-1.9629-2.6172-1.4587-1.9999-2.781-3.9529-4.0153-5.9149-1.1441-1.8186-2.1868-3.6173-3.1338-5.4041-1.0384-1.9305-1.5726-3.4901-1.6148-4.6744-7e-3 -0.1922-4.8e-4 -0.37455 0.019-0.54703 0.15187-1.3062 1.0936-2.671 2.8196-4.0685 2.0318-1.645 3.7723-2.1391 5.2197-1.5103 0.58053 0.25228 1.1142 0.6852 1.602 1.2981 0.17946 0.22551 0.46516 0.67242 0.85823 1.3414 0.24002 0.45534 0.48066 0.90664 0.72191 1.3539v1e-6c3.8802 7.1946 7.9146 13.345 12.043 18.491 4.5891 5.7211 8.6122 9.6873 12.003 11.882 0.10283 0.064264 0.20504 0.12683 0.30661 0.1877 3.2674 1.9577 5.8788 2.1607 7.8636 0.60771 2.0896-1.635 3.2992-4.7551 3.7002-9.4024 0.40081-4.6452 0.11515-9.8592-0.84166-15.655-3.6549 0.43166-7.0028 0.0094-10.052-1.2959-3.0758-1.3427-5.7767-3.5091-8.076-6.5238-2.3003-3.016-3.7206-5.9451-4.2413-8.8048-0.50585-2.9294-0.21897-5.6108 0.86701-8.0359 1.1298-2.4571 2.8671-4.5427 5.2017-6.2368 0.9077-0.65869 1.8217-1.1821 2.7399-1.5701v-1e-6c1.9822-0.83859 3.9897-1.0456 6.0058-0.61931 2.9975 0.59223 5.5795 2.4759 7.776 5.6292 3.1572 4.5323 5.4743 10.252 7.0915 17.106 2.5375-1.2654 5.2666-2.909 8.2357-4.926zm-27.457 2.1451c2.8048 3.7763 6.2316 5.5575 10.261 5.4091-1.5008-5.5681-3.2316-9.7751-5.2874-12.622-1.1806-1.6348-2.2793-2.646-3.3016-3.0324-1.0496-0.42496-1.9967-0.33068-2.8365 0.28275-1.1934 0.8718-1.708 2.2051-1.5398 3.9908 0.1398 1.7485 1.044 3.7359 2.7044 5.9715z" fill="#5c0083" stroke="#5c0083" style="font-variant-ligatures:none"/>
  <path transform="matrix(1.67 0 0 1.67 -654.5 436.18)" d="m469.82-44.302c-1.8826 1.2387-3.5357 1.801-4.9815 1.6766-1.4727-0.16422-2.684-0.9355-3.6295-2.3245-0.94508-1.3884-1.1249-2.9527-0.51592-4.6942 0.62727-1.8109 1.8886-3.3462 3.7818-4.5848 1.7086-1.1178 3.3413-1.6518 4.8758-1.6048 1.5349 0.04702 2.7224 0.74744 3.5665 2.0876 1.0231 1.6244 1.2404 3.3002 0.67653 5.0259-0.58987 1.6857-1.8468 3.1503-3.7738 4.4182zm20.77 32.618c-2.6348 1.7427-5.175 2.1443-7.652 1.163-2.4324-1.0079-4.7028-2.9982-6.7796-5.9973-1.228-1.7734-2.5748-4.2067-4.0152-7.2918-1.4268-3.157-2.5783-6.2099-3.4481-9.1622-0.47548-1.5356-0.54552-2.7652-0.21077-3.6873 0.33435-0.921 1.2292-1.873 2.6872-2.8402 2.2571-1.4974 3.8379-1.5386 4.7245-0.17238 0.66051 1.0178 1.7386 3.6044 3.3151 7.8085 1.8494 5.0793 3.343 8.424 4.3654 9.9703 0.79409 1.2009 1.5708 2.0115 2.3254 2.4333 0.75517 0.42209 1.5248 0.37452 2.3124-0.13906 0.74711-0.48714 1.3513-1.5936 1.8339-3.3255 0.48725-1.7485 0.97388-4.272 1.5413-7.6784 0.16062-0.88762 0.56526-1.5289 1.2098-1.9196 0.55871-0.33856 1.1378-0.35037 1.7344-0.0364 0.63982 0.28842 1.2161 0.86653 1.7326 1.7322 0.98324 1.6479 1.3424 3.1673 1.0917 4.5495-1.151 7.477-3.269 12.279-6.7682 14.593z" fill="#6a0f94" stroke="#6a0f94" style="font-variant-ligatures:none"/>
  <path transform="matrix(1.67 0 0 1.67 -654.5 436.18)" d="m519.94-52.658c0.11724-0.09218 0.33234-0.19345 0.64354-0.30001 0.66772-0.22866 1.2548-0.16549 1.7517 0.18029 0.49792 0.34645 0.86047 0.91261 1.1014 1.6923 0.43814 1.4179 0.53318 2.6249 0.31165 3.5982-0.23726 0.93215-0.767 1.739-1.5994 2.4472-1.6042 1.3452-3.4376 2.482-5.6073 3.4393-0.92604 0.40859-1.8655 0.75478-2.8235 1.0359-0.9331 0.27702-1.8726 0.49043-2.822 0.63908-0.23678 2.6084-0.52221 5.4076-0.83706 8.2648-0.36685 3.2939-0.84345 5.6782-1.5256 7.2205-0.62794 1.4197-1.5974 2.5467-2.9351 3.4011-0.10715 0.06852-0.21656 0.13528-0.32825 0.20028-1.6708 0.97233-3.384 1.1061-5.1648 0.38858-1.7364-0.74089-3.6082-2.4391-5.595-5.1023-4.0359-5.4242-7.3822-10.229-10.045-14.526l-1.3272-2.1417c-0.7898-1.374-0.96882-2.5617-0.52766-3.5653 0.44072-1.0026 1.435-1.976 2.986-2.9016 1.1862-0.70792 2.2045-0.97006 3.0436-0.79317 0.16213 0.02049 0.32051 0.05903 0.47511 0.11558 0.66696 0.24396 1.2619 0.82237 1.789 1.7331 2.7943 4.8279 6.6522 10.752 11.666 18.126 0.38548-5.0761 0.69944-9.2654 0.80969-12.141-1.3113-0.87646-2.4351-2.151-3.3493-3.8393-0.7769-1.4348-1.196-3.011-1.2316-4.7338-0.0356-1.7224 0.33403-3.3308 1.121-4.8145 0.7865-1.4829 1.9842-2.6217 3.5748-3.3871 0.5437-0.26163 1.0819-0.43239 1.612-0.51241 0.83173-0.12573 1.6437-0.02808 2.4294 0.29227 1.2699 0.482 2.2666 1.5887 3.0229 3.3038 0.87137 1.9761 1.3048 4.4891 1.3912 7.5067 1.7375-0.90103 3.663-2.1347 6.3144-3.8292 0.55664-0.33983 1.115-0.67264 1.6754-0.99774z" fill="#781fa5" stroke="#781fa5" style="font-variant-ligatures:none"/>
  <path transform="matrix(1.67 0 0 1.67 -654.5 436.18)" d="m548.68-51.494c0.6385-0.03153 1.1448 0.23449 1.5133 0.79504 0.20431 0.27319 0.36313 0.60012 0.47668 0.98079 0.11876 0.39779 0.18791 0.85387 0.20828 1.3686 0.0252 0.63601-3e-3 1.2268-0.082 1.7721v1e-6c-0.15986 1.0996-0.52954 2.0148-1.1 2.7482-1.6716 2.2596-3.9663 4.3403-6.7687 6.4316-1.4735 1.115-2.9624 1.9937-4.4749 2.6516-1.3235 0.58283-2.6038 0.96956-3.8447 1.1819-2.0608 0.35259-3.642 0.2677-5.0423-0.20345-1.2239-0.36164-2.4783-0.92072-3.7468-1.7319-2.9287-1.8729-5.5277-4.7718-7.3348-9.2023-1.2504-3.0657-1.807-6.1673-1.4925-9.3244 0.29649-3.1929 1.4385-6.0523 3.5228-8.4346 0.17016-0.1911 0.34532-0.37718 0.52542-0.55812 2.0841-2.0926 4.8395-3.4585 8.0242-4.0127 1.9453-0.33855 3.702-0.24795 5.2352 0.22784 0.89837 0.27831 1.7217 0.68963 2.4675 1.2297 2.0189 1.4179 3.1133 3.5624 3.3801 6.3806 0.31305 3.3077-0.67587 6.2399-2.7166 8.9089-0.26127 0.34171-0.54796 0.67928-0.85938 1.0137-2.2317 2.39-5.1069 4.121-8.5701 6.3791 1.4422 1.8968 3.225 2.5856 5.9912 2.1277 1.0609-0.1756 2.2154-0.6169 3.5085-1.3321 0.86189-0.47458 1.7703-1.0645 2.7354-1.7684 2.4381-1.8016 4.6297-3.948 6.5232-6.516 0.54173-0.70511 1.1846-1.077 1.921-1.1133zm-19.665-8.357c-1.8204 0.34151-3.1384 1.7006-3.8077 4.0014-0.62733 2.3016-0.42899 4.8339 0.3796 7.6553l0.0397 0.13841c2.0992-1.3235 3.8499-2.6633 5.1517-4.2851 1.288-1.6047 1.8773-3.2523 1.6009-5.0173-0.14119-0.90172-0.52007-1.5715-1.1487-2.0044-0.58574-0.48722-1.3306-0.65432-2.2154-0.48833z" fill="#852eb6" stroke="#852eb6" style="font-variant-ligatures:none"/>
  <path transform="matrix(1.67 0 0 1.67 -654.5 436.18)" d="m550.68-35.153c-1.7374 0.07811-2.9822-0.80999-3.8217-2.6817-0.78903-1.8617-1.3512-4.9279-1.641-9.1294-0.43025-6.2386 0.0389-12.191 1.6721-17.921 0.3948-1.416 1.1077-2.4622 2.1407-3.1327 0.26709-0.17764 0.56143-0.33553 0.88287-0.4734 0.98161-0.42108 2.2167-0.65579 3.6984-0.69423 1.0628-0.02757 1.8104 0.07901 2.2388 0.31106 0.42892 0.23234 0.64779 0.68516 0.65827 1.357 0.0121 0.77578-0.35945 2.4931-1.0855 5.2033-0.47966 1.9277-0.85082 3.6205-1.1201 5.0655-0.26978 1.4477-0.47477 3.228-0.61578 5.3453 1.5285-4.1735 3.3616-7.5645 5.4718-10.172 2.1082-2.6048 4.2295-4.4442 6.3035-5.5195 2.1278-1.0751 4.0834-1.5811 5.8324-1.529 3.456 0.10283 5.101 1.7523 4.969 4.8637-0.08 1.887-0.80177 5.2106-2.1181 10.076-1.1282 4.1256-1.6965 6.891-1.7426 8.2231-0.0665 1.92 0.62143 2.902 2.0611 2.9599 0.9955 0.04 2.1896-0.48512 3.6016-1.5709 0.95131-0.73481 2.112-1.759 3.4975-3.0716v-1e-6c0.74736-0.7092 1.558-1.501 2.4363-2.3765 0.65164-0.63394 1.3621-0.92659 2.1279-0.87718 0.66369 0.04282 1.1552 0.36445 1.4731 0.96323 0.36892 0.60246 0.51751 1.4064 0.44824 2.4121-0.13191 1.9152-0.71541 3.3667-1.739 4.3569-1.6888 1.738-3.4362 3.2396-5.2452 4.5068-0.68724 0.4805-1.3825 0.92733-2.0858 1.3407-2.5128 1.5086-5.2827 2.2015-8.3312 2.1061-2.4661-0.07725-4.2926-0.80655-5.524-2.2172-1.2275-1.4549-1.8448-3.5277-1.8244-6.2132 0.0101-1.3348 0.36889-3.7503 1.107-7.1893 0.68677-3.0239 1.0502-5.0911 1.0665-6.2507 0.0108-0.76775-0.26576-1.1563-0.83095-1.1629-0.6673-0.0078-1.6285 0.79868-2.8523 2.4274-1.172 1.5798-2.3786 3.6974-3.5891 6.3484-1.162 2.6528-2.0601 5.451-2.7139 8.3945-0.47681 2.2658-1.0492 3.8174-1.7243 4.6531-0.54261 0.67739-1.3795 1.0802-2.5101 1.2201-0.18328 0.02287-0.37399 0.03872-0.5721 0.04763z" fill="#933ec7" stroke="#933ec7" style="font-variant-ligatures:none"/>
  <path transform="matrix(1.67 0 0 1.67 -654.5 436.18)" d="m616.17-48.074c0.60566 0.07579 1.0429 0.38456 1.3157 0.92514 0.0198 0.03922 0.0386 0.07965 0.0565 0.1213 0.16977 0.33718 0.26649 0.73035 0.2985 1.1781 0.0267 0.3726 1e-3 0.79841-0.0599 1.2504-0.075 0.55444-0.18041 1.0971-0.31739 1.5665-0.1834 0.62854-0.42452 1.1905-0.73312 1.6701-0.24814 0.38572-0.53533 0.72441-0.86293 1.0154-0.49086 0.46387-0.99064 0.90843-1.501 1.3329-1.975 1.6433-4.0269 3.0004-6.173 4.069-0.68492 0.34105-1.3882 0.62857-2.1109 0.86254-2.1286 0.68912-4.4048 0.91641-6.8434 0.68902-9.9842-0.93099-14.695-8.024-13.833-21.805 0.13174-2.1078 0.34222-4.235 0.63442-6.3808-1.0169-0.06404-2.034-0.12497-3.0512-0.18274-0.22293-0.01266-0.4355-0.02995-0.63774-0.0519-1.218-0.13193-2.0612-0.43352-2.5315-0.91071-0.49579-0.55335-0.71732-1.4055-0.66128-2.5561 0.12752-2.6183 1.3232-3.9101 3.5988-3.8475 0.0566 0.0016 0.11389 0.0039 0.17182 0.0072 1.5089 0.08428 3.0173 0.1754 4.5251 0.27319 1.2416-5.2128 2.9568-9.9291 5.1774-14.149 2.2199-4.2191 4.7993-7.5078 7.7282-9.8605 2.9825-2.3466 6.0813-3.362 9.2386-3.0431 1.1164 0.11274 2.0965 0.4205 2.938 0.92118 0.91243 0.54246 1.6653 1.3117 2.255 2.3061 1.1354 1.9146 1.5421 4.2046 1.2367 6.8771-0.54343 4.755-2.5166 8.9484-5.8015 12.611-1.8219 2.0318-4.0526 3.9022-6.6845 5.6287 2.0092 0.19137 4.0171 0.39359 6.0238 0.60628 0.94396 0.10003 1.888 0.20244 2.832 0.30756 0.84319 0.09388 1.4304 0.33038 1.7604 0.70652 0.3302 0.37641 0.44176 1.0174 0.33635 1.9234-0.29243 2.5132-2.191 3.8572-5.6734 4.0887-1.0826 0.072-2.3185 0.03724-3.7111-0.10114-3.1749-0.31549-6.3518-0.60382-9.5302-0.86336-0.2993 2.3818-0.50285 4.247-0.61168 5.5848-0.40443 4.9715-0.0732 8.5217 0.96642 10.629 1.0929 2.1168 2.9607 3.2898 5.6229 3.546 1.9408 0.18678 3.7284-0.13626 5.3751-0.97421 0.18677-0.09506 0.37162-0.19676 0.55456-0.30509 1.8018-1.067 3.9535-2.7029 6.5232-4.9141 0.47286-0.41083 0.96366-0.65741 1.471-0.73954 0.22719-0.03677 0.45688-0.04067 0.68872-0.01165zm-9.4838-41.17c-0.8219-0.07982-1.8425 0.73911-3.0473 2.4598-1.1459 1.678-2.3217 4.0785-3.5177 7.2027-1.1382 3.082-2.1572 6.5344-3.0617 10.362 3.3255-2.18 5.9216-4.6842 7.7656-7.5451 1.9029-2.9047 2.996-5.5882 3.2451-8.0738 0.28243-2.8179-0.17843-4.2882-1.3839-4.4053z" fill="#a14dd8" stroke="#a14dd8" style="font-variant-ligatures:none"/>
 </g>
 <image id="icon" x="-20.767" y="-275.93" width="0" height="0" display="none" xlink:href=""/>
</svg>
